<svg xmlns="http://www.w3.org/2000/svg">
    <symbol id="dotsOptions-square" viewBox="0 0 84 84">
        <path  d="M105,189V168h21v21Zm-42,0V168H84v21Zm42-21V147h21v21Zm-21,0V147h21v21Zm-42,0V147H63v21Zm21-21V126H84v21Zm21-21V105h21v21Zm-21,0V105H84v21Zm-21,0V105H63v21Z" transform="translate(-42 -105)"/>
    </symbol>
    <symbol id="dotsOptions-rounded" viewBox="0 0 84 84">
        <path  d="M105,178.5V147h10.5A10.5,10.5,0,0,1,126,157.5v21a10.5,10.5,0,1,1-21,0Zm-42,0A10.5,10.5,0,1,1,73.5,189,10.5,10.5,0,0,1,63,178.5ZM94.5,168a10.5,10.5,0,1,1,0-21H105v21ZM42,157.5A10.5,10.5,0,1,1,52.5,168,10.5,10.5,0,0,1,42,157.5Zm21-21V126H84v10.5a10.5,10.5,0,0,1-21,0ZM84,126V105H94.5a10.5,10.5,0,1,1,0,21Zm-21,0V105H84v21Zm-10.5,0a10.5,10.5,0,0,1,0-21H63v21Z" transform="translate(-42 -105)"/>
    </symbol>
    <symbol id="dotsOptions-dots" viewBox="0 0 84 84">
        <path  d="M105,178.5A10.5,10.5,0,1,1,115.5,189,10.5,10.5,0,0,1,105,178.5Zm-42,0A10.5,10.5,0,1,1,73.5,189,10.5,10.5,0,0,1,63,178.5Zm42-21A10.5,10.5,0,1,1,115.5,168,10.5,10.5,0,0,1,105,157.5Zm-21,0A10.5,10.5,0,1,1,94.5,168,10.5,10.5,0,0,1,84,157.5Zm-42,0A10.5,10.5,0,1,1,52.5,168,10.5,10.5,0,0,1,42,157.5Zm21-21A10.5,10.5,0,1,1,73.5,147,10.5,10.5,0,0,1,63,136.5Zm21-21A10.5,10.5,0,1,1,94.5,126,10.5,10.5,0,0,1,84,115.5Zm-21,0A10.5,10.5,0,1,1,73.5,126,10.5,10.5,0,0,1,63,115.5Zm-21,0A10.5,10.5,0,1,1,52.5,126,10.5,10.5,0,0,1,42,115.5Z" transform="translate(-42 -105)"/>
    </symbol>
    <symbol id="dotsOptions-extra-rounded" viewBox="0 0 84 84">
        <path  d="M105,178.5V147a21,21,0,0,1,21,21v10.5a10.5,10.5,0,1,1-21,0Zm-42,0A10.5,10.5,0,1,1,73.5,189,10.5,10.5,0,0,1,63,178.5ZM94.5,168a10.5,10.5,0,1,1,0-21H105v21ZM42,157.5A10.5,10.5,0,1,1,52.5,168,10.5,10.5,0,0,1,42,157.5Zm21-21V126H84v10.5a10.5,10.5,0,0,1-21,0ZM84,126V105H94.5a10.5,10.5,0,1,1,0,21Zm-21,0V105H84v21Zm-10.5,0a10.5,10.5,0,0,1,0-21H63v21Z" transform="translate(-42 -105)"/>
    </symbol>
    <symbol id="dotsOptions-classy" viewBox="0 0 84 84">
        <path  d="M105,189V147h10.5A10.5,10.5,0,0,1,126,157.5v21A10.5,10.5,0,0,1,115.5,189Zm-42,0V178.5A10.5,10.5,0,0,1,73.5,168H84v10.5A10.5,10.5,0,0,1,73.5,189Zm21-21V157.5A10.5,10.5,0,0,1,94.5,147H105v21Zm-42,0V157.5A10.5,10.5,0,0,1,52.5,147H63v10.5A10.5,10.5,0,0,1,52.5,168Zm21-21V126H84v10.5A10.5,10.5,0,0,1,73.5,147Zm21-21V105h21v10.5A10.5,10.5,0,0,1,94.5,126Zm-21,0V105H84v21Zm-21,0V115.5A10.5,10.5,0,0,1,52.5,105H63v21Z" transform="translate(-42 -105)"/>
    </symbol>
    <symbol id="dotsOptions-classy-rounded" viewBox="0 0 84 84">
        <path  d="M105,168V147h21v21a21,21,0,0,1-21,21ZM63,189V178.5A10.5,10.5,0,0,1,73.5,168H84v10.5A10.5,10.5,0,0,1,73.5,189Zm21-21a21,21,0,0,1,21-21v21Zm-42,0V157.5A10.5,10.5,0,0,1,52.5,147H63v10.5A10.5,10.5,0,0,1,52.5,168Zm21-42H84a21,21,0,0,1-21,21Zm21-21h21a21,21,0,0,1-21,21ZM63,126V105H84v21Zm-21,0a21,21,0,0,1,21-21v21Z" transform="translate(-42 -105)"/>
    </symbol>
    <symbol id="cornersSquareOptions-square" viewBox="0 0 84 84">
        <path d="M29,29v84h84V29ZM41,41h60v60H41Z" transform="translate(-29 -29)"/>
    </symbol>
    <symbol id="cornersSquareOptions-dot" viewBox="0 0 84 84">
        <path d="M71.021,29a42,42,0,1,0,.057,0Zm0,12a30,30,0,1,1-.057,0Z" transform="translate(-29.05 -29)"/>
    </symbol>
    <symbol id="cornersSquareOptions-extra-rounded" viewBox="0 0 84 84">
        <path d="M29,59V83a30,30,0,0,0,30,30H83a30,30,0,0,0,30-30V59A30,30,0,0,0,83,29H59A30,30,0,0,0,29,59M59,41H83a18,18,0,0,1,18,18V83a18,18,0,0,1-18,18H59A18,18,0,0,1,41,83V59A18,18,0,0,1,59,41" transform="translate(-29 -29)"/>
    </symbol>
    <symbol id="cornersDotOptions-square" viewBox="0 0 84 84">
        <rect width="84" height="84"/>
    </symbol>
    <symbol id="cornersDotOptions-dot" viewBox="0 0 84 84">
        <circle cx="42" cy="42" r="42"/>
    </symbol>
</svg>
